<svg
  width="120"
  height="110"
  viewBox="0 0 120 110"
  fill="none"
  xmlns="http://www.w3.org/2000/svg"
>
  <g clip-path="url(#clip0)">
    <path
      d="M14.7046 70.3027C-5.33909 59.1458 -1.36924 29.2214 20.8782 23.7666L86.0215 7.79419C104.633 3.23085 121.369 20.2993 116.447 38.8232L104.355 84.3258C100.139 100.193 82.1188 107.828 67.7561 99.8329L14.7046 70.3027Z"
      fill="#D8F8EA"
    />
    <path
      d="M12.5 20C12.5 18.067 14.067 16.5 16 16.5H105C106.933 16.5 108.5 18.067 108.5 20V39.5354H12.5V20Z"
      fill="#2FC18C"
      stroke="#036B52"
    />
    <path d="M33.0884 26.301H101.761V29.7346H33.0884V26.301Z" fill="#036B52" />
    <path
      fill-rule="evenodd"
      clip-rule="evenodd"
      d="M23.8317 30.52C25.3163 30.52 26.5198 29.3165 26.5198 27.8319C26.5198 26.3473 25.3163 25.1438 23.8317 25.1438C22.3471 25.1438 21.1436 26.3473 21.1436 27.8319C21.1436 29.3165 22.3471 30.52 23.8317 30.52ZM23.8317 31.9381C26.0995 31.9381 27.9379 30.0997 27.9379 27.8319C27.9379 25.5641 26.0995 23.7257 23.8317 23.7257C21.5639 23.7257 19.7255 25.5641 19.7255 27.8319C19.7255 30.0997 21.5639 31.9381 23.8317 31.9381Z"
      fill="#036B52"
    />
    <rect
      x="12.5"
      y="39.6772"
      width="96"
      height="23.0354"
      fill="#2FC18C"
      stroke="#036B52"
    />
    <rect
      x="33.0884"
      y="49.4782"
      width="68.6726"
      height="3.43363"
      fill="#036B52"
    />
    <path
      fill-rule="evenodd"
      clip-rule="evenodd"
      d="M23.8317 53.6973C25.3163 53.6973 26.5198 52.4938 26.5198 51.0092C26.5198 49.5246 25.3163 48.321 23.8317 48.321C22.3471 48.321 21.1436 49.5246 21.1436 51.0092C21.1436 52.4938 22.3471 53.6973 23.8317 53.6973ZM23.8317 55.1154C26.0995 55.1154 27.9379 53.277 27.9379 51.0092C27.9379 48.7414 26.0995 46.903 23.8317 46.903C21.5639 46.903 19.7255 48.7414 19.7255 51.0092C19.7255 53.277 21.5639 55.1154 23.8317 55.1154Z"
      fill="#036B52"
    />
    <path
      d="M12.5 62.8539H108.5V82.3893C108.5 84.3223 106.933 85.8893 105 85.8893H16C14.067 85.8893 12.5 84.3223 12.5 82.3893V62.8539Z"
      fill="#2FC18C"
      stroke="#036B52"
    />
    <rect
      x="33.0884"
      y="72.655"
      width="68.6726"
      height="3.43363"
      fill="#036B52"
    />
    <path
      fill-rule="evenodd"
      clip-rule="evenodd"
      d="M23.8317 76.8741C25.3163 76.8741 26.5198 75.6706 26.5198 74.186C26.5198 72.7014 25.3163 71.4979 23.8317 71.4979C22.3471 71.4979 21.1436 72.7014 21.1436 74.186C21.1436 75.6706 22.3471 76.8741 23.8317 76.8741ZM23.8317 78.2922C26.0995 78.2922 27.9379 76.4538 27.9379 74.186C27.9379 71.9182 26.0995 70.0798 23.8317 70.0798C21.5639 70.0798 19.7255 71.9182 19.7255 74.186C19.7255 76.4538 21.5639 78.2922 23.8317 78.2922Z"
      fill="#036B52"
    />
  </g>
  <defs>
    <clipPath id="clip0">
      <rect width="120" height="110" fill="white" />
    </clipPath>
  </defs>
</svg>
