<svg
  width="120"
  height="110"
  viewBox="0 0 120 110"
  fill="none"
  xmlns="http://www.w3.org/2000/svg"
>
  <g clip-path="url(#clip0)">
    <path
      d="M13.7046 70.3027C-6.33909 59.1458 -2.36924 29.2214 19.8782 23.7666L85.0215 7.79419C103.633 3.23085 120.369 20.2993 115.447 38.8232L103.355 84.3258C99.1386 100.193 81.1188 107.828 66.7561 99.8329L13.7046 70.3027Z"
      fill="#DCCDE4"
    />
    <path
      fill-rule="evenodd"
      clip-rule="evenodd"
      d="M35.5545 80.6366L56.4748 60.0069L57.2909 60.8345L36.3706 81.4642L35.5545 80.6366Z"
      fill="#41197F"
    />
    <path
      fill-rule="evenodd"
      clip-rule="evenodd"
      d="M75.3612 80.6366L56.4748 60.0069L57.332 59.2221L76.2184 79.8518L75.3612 80.6366Z"
      fill="#41197F"
    />
    <path
      fill-rule="evenodd"
      clip-rule="evenodd"
      d="M77.2229 39.2847L56.4748 60.0068L55.6535 59.1845L76.4016 38.4623L77.2229 39.2847Z"
      fill="#41197F"
    />
    <path
      fill-rule="evenodd"
      clip-rule="evenodd"
      d="M56.4749 18.7473L37.5885 39.377L36.7313 38.5922L55.6176 17.9625L56.4749 18.7473Z"
      fill="#41197F"
    />
    <path
      fill-rule="evenodd"
      clip-rule="evenodd"
      d="M77.1045 39.3772L56.4748 18.7475L57.2966 17.9257L77.9264 38.5554L77.1045 39.3772Z"
      fill="#41197F"
    />
    <path
      fill-rule="evenodd"
      clip-rule="evenodd"
      d="M95.9909 60.0068L77.1045 39.377L77.9618 38.5922L96.8482 59.2219L95.9909 60.0068Z"
      fill="#41197F"
    />
    <path
      d="M82.3922 80.7405C82.3922 84.7557 79.1372 88.0107 75.1219 88.0107C71.1067 88.0107 67.8517 84.7557 67.8517 80.7405C67.8517 76.7252 71.1067 73.4702 75.1219 73.4702C79.1372 73.4702 82.3922 76.7252 82.3922 80.7405Z"
      fill="#41197F"
    />
    <path
      d="M42.5405 80.7405C42.5405 84.7557 39.2855 88.0107 35.2702 88.0107C31.255 88.0107 28 84.7557 28 80.7405C28 76.7252 31.255 73.4702 35.2702 73.4702C39.2855 73.4702 42.5405 76.7252 42.5405 80.7405Z"
      fill="#DCCDE4"
    />
    <path
      fill-rule="evenodd"
      clip-rule="evenodd"
      d="M35.2702 86.8777C38.6598 86.8777 41.4075 84.13 41.4075 80.7405C41.4075 77.3509 38.6598 74.6032 35.2702 74.6032C31.8807 74.6032 29.133 77.3509 29.133 80.7405C29.133 84.13 31.8807 86.8777 35.2702 86.8777ZM35.2702 88.0107C39.2855 88.0107 42.5405 84.7557 42.5405 80.7405C42.5405 76.7252 39.2855 73.4702 35.2702 73.4702C31.255 73.4702 28 76.7252 28 80.7405C28 84.7557 31.255 88.0107 35.2702 88.0107Z"
      fill="#41197F"
    />
    <path
      d="M63.5434 59.7375C63.5434 63.7527 60.2884 67.0077 56.2732 67.0077C52.2579 67.0077 49.0029 63.7527 49.0029 59.7375C49.0029 55.7222 52.2579 52.4672 56.2732 52.4672C60.2884 52.4672 63.5434 55.7222 63.5434 59.7375Z"
      fill="#41197F"
    />
    <path
      d="M103.395 59.7375C103.395 63.7527 100.14 67.0077 96.1249 67.0077C92.1097 67.0077 88.8547 63.7527 88.8547 59.7375C88.8547 55.7222 92.1097 52.4672 96.1249 52.4672C100.14 52.4672 103.395 55.7222 103.395 59.7375Z"
      fill="#DCCDE4"
    />
    <path
      fill-rule="evenodd"
      clip-rule="evenodd"
      d="M96.1249 65.8747C99.5144 65.8747 102.262 63.127 102.262 59.7375C102.262 56.3479 99.5144 53.6002 96.1249 53.6002C92.7354 53.6002 89.9877 56.3479 89.9877 59.7375C89.9877 63.127 92.7354 65.8747 96.1249 65.8747ZM96.1249 67.0077C100.14 67.0077 103.395 63.7527 103.395 59.7375C103.395 55.7222 100.14 52.4672 96.1249 52.4672C92.1097 52.4672 88.8547 55.7222 88.8547 59.7375C88.8547 63.7527 92.1097 67.0077 96.1249 67.0077Z"
      fill="#41197F"
    />
    <path
      d="M85.0849 39.2732C85.0849 43.2885 81.5888 46.5435 77.2761 46.5435C72.9635 46.5435 69.4673 43.2885 69.4673 39.2732C69.4673 35.258 72.9635 32.003 77.2761 32.003C81.5888 32.003 85.0849 35.258 85.0849 39.2732Z"
      fill="#41197F"
    />
    <path
      d="M45.2333 39.2732C45.2333 43.2885 41.8577 46.5435 37.6938 46.5435C33.5298 46.5435 30.1542 43.2885 30.1542 39.2732C30.1542 35.258 33.5298 32.003 37.6938 32.003C41.8577 32.003 45.2333 35.258 45.2333 39.2732Z"
      fill="#DCCDE4"
    />
    <path
      fill-rule="evenodd"
      clip-rule="evenodd"
      d="M37.6938 45.4105C41.2088 45.4105 44.0583 42.6628 44.0583 39.2732C44.0583 35.8837 41.2088 33.136 37.6938 33.136C34.1787 33.136 31.3292 35.8837 31.3292 39.2732C31.3292 42.6628 34.1787 45.4105 37.6938 45.4105ZM37.6938 46.5435C41.8577 46.5435 45.2333 43.2885 45.2333 39.2732C45.2333 35.258 41.8577 32.003 37.6938 32.003C33.5298 32.003 30.1542 35.258 30.1542 39.2732C30.1542 43.2885 33.5298 46.5435 37.6938 46.5435Z"
      fill="#41197F"
    />
    <path
      d="M64.082 18.5395C64.082 22.7035 60.7064 26.079 56.5424 26.079C52.3785 26.079 49.0029 22.7035 49.0029 18.5395C49.0029 14.3756 52.3785 11 56.5424 11C60.7064 11 64.082 14.3756 64.082 18.5395Z"
      fill="#41197F"
    />
  </g>
  <defs>
    <clipPath id="clip0">
      <rect width="120" height="110" fill="white" />
    </clipPath>
  </defs>
</svg>
