<svg
  width="120"
  height="110"
  viewBox="0 0 120 110"
  fill="none"
  xmlns="http://www.w3.org/2000/svg"
>
  <g clip-path="url(#clip0)">
    <path
      d="M13.7046 70.3027C-6.33909 59.1458 -2.36924 29.2214 19.8782 23.7666L85.0215 7.79419C103.633 3.23085 120.369 20.2993 115.447 38.8232L103.355 84.3258C99.1386 100.193 81.1188 107.828 66.7561 99.8329L13.7046 70.3027Z"
      fill="#DCCDE4"
    />
    <path
      d="M11.9398 18.8551C11.9398 16.1737 14.109 14 16.7848 14H103.89C106.566 14 108.735 16.1737 108.735 18.8551V86.2052C108.735 88.8866 106.566 91.0602 103.89 91.0602H16.7848C14.109 91.0602 11.9398 88.8866 11.9398 86.2052V18.8551Z"
      fill="#C5ACD2"
    />
    <path
      fill-rule="evenodd"
      clip-rule="evenodd"
      d="M11 19.517C11 16.47 13.4916 14 16.5651 14H104.11C107.183 14 109.675 16.47 109.675 19.517V86.483C109.675 89.53 107.183 92 104.11 92H16.5651C13.4916 92 11 89.53 11 86.483V19.517ZM16.5651 15.3792C14.26 15.3792 12.3913 17.2318 12.3913 19.517V86.483C12.3913 88.7682 14.26 90.6208 16.5651 90.6208H104.11C106.415 90.6208 108.283 88.7682 108.283 86.483V19.517C108.283 17.2318 106.415 15.3792 104.11 15.3792H16.5651Z"
      fill="#41197F"
    />
    <path
      fill-rule="evenodd"
      clip-rule="evenodd"
      d="M108.735 34.2048C108.735 34.4643 108.426 34.6747 108.045 34.6747H12.6298C12.2487 34.6747 11.9398 34.4643 11.9398 34.2048C11.9398 33.9453 12.2487 33.7349 12.6298 33.7349H108.045C108.426 33.7349 108.735 33.9453 108.735 34.2048Z"
      fill="#41197F"
    />
    <path
      d="M28.8554 56.4974C28.8554 55.3444 29.7817 54.4097 30.9242 54.4097H88.8107C89.9533 54.4097 90.8795 55.3444 90.8795 56.4974V69.2376C90.8795 70.3906 89.9533 71.3253 88.8107 71.3253H30.9242C29.7817 71.3253 28.8554 70.3906 28.8554 69.2376V56.4974Z"
      fill="#41197F"
    />
    <path
      d="M39.1928 24.8072C39.1928 27.1428 37.5098 29.0361 35.4337 29.0361C33.3577 29.0361 31.6747 27.1428 31.6747 24.8072C31.6747 22.4717 33.3577 20.5783 35.4337 20.5783C37.5098 20.5783 39.1928 22.4717 39.1928 24.8072Z"
      fill="#41197F"
    />
    <path
      fill-rule="evenodd"
      clip-rule="evenodd"
      d="M23.6867 27.5757C25.2157 27.5757 26.4552 26.3362 26.4552 24.8072C26.4552 23.2783 25.2157 22.0388 23.6867 22.0388C22.1578 22.0388 20.9183 23.2783 20.9183 24.8072C20.9183 26.3362 22.1578 27.5757 23.6867 27.5757ZM23.6867 29.0361C26.0223 29.0361 27.9157 27.1428 27.9157 24.8072C27.9157 22.4717 26.0223 20.5783 23.6867 20.5783C21.3512 20.5783 19.4578 22.4717 19.4578 24.8072C19.4578 27.1428 21.3512 29.0361 23.6867 29.0361Z"
      fill="#41197F"
    />
    <path
      d="M52.3494 24.8072C52.3494 27.1428 50.6664 29.0361 48.5903 29.0361C46.5143 29.0361 44.8313 27.1428 44.8313 24.8072C44.8313 22.4717 46.5143 20.5783 48.5903 20.5783C50.6664 20.5783 52.3494 22.4717 52.3494 24.8072Z"
      fill="#41197F"
    />
  </g>
  <defs>
    <clipPath id="clip0">
      <rect width="120" height="110" fill="white" />
    </clipPath>
  </defs>
</svg>
