<svg
  width="120"
  height="110"
  viewBox="0 0 120 110"
  fill="none"
  xmlns="http://www.w3.org/2000/svg"
>
  <g clip-path="url(#clip0)">
    <path
      d="M14.7046 70.3027C-5.33909 59.1458 -1.36924 29.2214 20.8782 23.7666L86.0215 7.79419C104.633 3.23085 121.369 20.2993 116.447 38.8232L104.355 84.3258C100.139 100.193 82.1188 107.828 67.7561 99.8329L14.7046 70.3027Z"
      fill="#D8F8EA"
    />
    <path
      d="M15.3104 90.1639V58.2905L39.733 48.7698L64.5694 58.2905V90.1639L39.733 99.6846L15.3104 90.1639Z"
      fill="#2FC18C"
    />
    <path
      d="M40.1802 67.2743L16.0833 58.1677L39.842 48.3021L64.0034 58.1677L40.1802 67.2743Z"
      fill="#036B52"
    />
    <path
      fill-rule="evenodd"
      clip-rule="evenodd"
      d="M40.0516 66.5283L65.2919 57.35L65.8066 58.7654L40.0351 68.1369L15.8114 58.76L16.3551 57.3554L40.0516 66.5283Z"
      fill="#036B52"
    />
    <path
      fill-rule="evenodd"
      clip-rule="evenodd"
      d="M39.3938 99.6846V66.9833H40.8999V99.6846H39.3938Z"
      fill="#036B52"
    />
    <path
      fill-rule="evenodd"
      clip-rule="evenodd"
      d="M40.1491 47.9625L65.3224 57.7759V90.6787L41.1436 100.104C40.5037 100.354 39.7937 100.356 39.1524 100.11L16.3302 91.3615C15.2623 90.9521 14.5573 89.9268 14.5573 88.7831V59.6714C14.5573 58.5278 15.2623 57.5025 16.3302 57.0931L40.1491 47.9625ZM40.1445 49.5773L16.8693 58.4995C16.3839 58.6855 16.0634 59.1516 16.0634 59.6714V88.7831C16.0634 89.303 16.3839 89.769 16.8693 89.9551L39.6915 98.7036C39.983 98.8154 40.3057 98.8145 40.5966 98.7011L63.8162 89.6493V58.8052L40.1445 49.5773Z"
      fill="#036B52"
    />
    <path
      d="M64.9834 90.1639V58.2905L89.4059 48.7698L114.242 58.2905V90.1639L89.4059 99.6846L64.9834 90.1639Z"
      fill="#2FC18C"
    />
    <path
      fill-rule="evenodd"
      clip-rule="evenodd"
      d="M90.1167 66.525L65.8152 57.3531L65.2833 58.7622L90.1307 68.1401L113.747 58.7575L113.191 57.3578L90.1167 66.525Z"
      fill="#036B52"
    />
    <path
      fill-rule="evenodd"
      clip-rule="evenodd"
      d="M89.0668 99.6846V66.9833H90.5729V99.6846H89.0668Z"
      fill="#036B52"
    />
    <path
      fill-rule="evenodd"
      clip-rule="evenodd"
      d="M89.822 47.9625L113.237 57.0904C114.297 57.5037 114.995 58.5251 114.995 59.6631V88.7915C114.995 89.9294 114.297 90.9509 113.237 91.3642L90.8166 100.104C90.1766 100.354 89.4667 100.356 88.8253 100.11L64.2302 90.6818V57.7727L89.822 47.9625ZM65.7364 58.8084V89.6462L89.3644 98.7036C89.656 98.8154 89.9787 98.8145 90.2696 98.7011L112.69 89.9609C113.172 89.773 113.489 89.3087 113.489 88.7915V59.6631C113.489 59.1458 113.172 58.6815 112.69 58.4937L89.8175 49.5773L65.7364 58.8084Z"
      fill="#036B52"
    />
    <path
      d="M89.8828 67.2743L65.7845 58.2375L89.3081 48.8928L113.479 57.7355L89.8828 67.2743Z"
      fill="#036B52"
    />
    <path
      d="M40.1469 48.77V16.8966L64.5694 7.37592L89.4058 16.8966V48.77L64.5694 58.2907L40.1469 48.77Z"
      fill="#2FC18C"
    />
    <path
      fill-rule="evenodd"
      clip-rule="evenodd"
      d="M64.769 24.7996L88.6276 16.3596L89.1299 17.7795L64.7837 26.392L40.4443 18.2861L40.9202 16.8571L64.769 24.7996Z"
      fill="#036B52"
    />
    <path
      fill-rule="evenodd"
      clip-rule="evenodd"
      d="M64.2303 58.2906V25.5893H65.7365V58.2906H64.2303Z"
      fill="#036B52"
    />
    <path
      fill-rule="evenodd"
      clip-rule="evenodd"
      d="M63.9889 6.95058C64.6303 6.70473 65.3402 6.70674 65.9802 6.95621L88.4006 15.6964C89.4608 16.1097 90.1589 17.1311 90.1589 18.2691V49.2847L64.9856 59.098L39.3938 49.2878V18.2774C39.3938 17.1337 40.0988 16.1084 41.1667 15.6991L63.9889 6.95058ZM65.4331 8.35949C65.1422 8.2461 64.8195 8.24519 64.528 8.35694L41.7058 17.1054C41.2204 17.2915 40.8999 17.7576 40.8999 18.2774V48.2522L64.9811 57.4833L88.6528 48.2553V18.2691C88.6528 17.7518 88.3355 17.2875 87.8535 17.0997L65.4331 8.35949Z"
      fill="#036B52"
    />
    <path
      d="M64.575 25.5234L40.6823 17.0696L64.575 7.15594L88.7364 17.0215L64.575 25.5234Z"
      fill="#036B52"
    />
  </g>
  <defs>
    <clipPath id="clip0">
      <rect width="120" height="110" fill="white" />
    </clipPath>
  </defs>
</svg>
